<?xml version="1.0" encoding="utf-8"?>
<!DOCTYPE svg PUBLIC "-//W3C//DTD SVG 1.1//EN" "http://www.w3.org/Graphics/SVG/1.1/DTD/svg11.dtd">
<svg version="1.1" xmlns="http://www.w3.org/2000/svg" xmlns:xlink="http://www.w3.org/1999/xlink" x="0px" y="0px" width="150px"
	height="57px" viewBox="0 0 150 57" enable-background="new 0 0 150 57" xml:space="preserve">
	<g id="Background">
		<rect fill="#04025c" width="150" height="57"/>
	</g>
	<g id="Foreground">
		<path id="Logo" fill="#FFFFFF" d="M102.555,8.743v38.676h38.676V8.743H102.555z M134.152,14.675v11.07l-5.533-5.535L134.152,14.675z
			M115.965,22.954l5.535,5.533h-11.068L115.965,22.954z M109.632,27.688V16.619l5.534,5.534L109.632,27.688z M115.387,20.774h11.068
			l-5.534,5.536L115.387,20.774z M127.82,33.208l-5.535-5.535h11.068l-3.914,3.914L127.82,33.208z M128.398,35.386h-11.069
			l5.534-5.532L128.398,35.386z M134.152,28.474v11.068l-5.533-5.535L134.152,28.474z M133.354,26.544h-11.068l5.535-5.535
			L133.354,26.544z M126.455,19.644h-11.068l5.534-5.534L126.455,19.644z M119.557,13.876l-5.535,5.534l-5.535-5.534H119.557z
			M109.632,41.484V30.417l5.534,5.535L109.632,41.484z M114.346,33.532l-3.914-3.914H121.5l-5.535,5.532L114.346,33.532z
			M117.329,36.518h11.069l-3.914,3.914l-1.621,1.62L117.329,36.518z M124.229,42.286l3.914-3.914l1.621-1.621l5.535,5.535H124.229z"
			/>
		</g>
   </svg>
