<?xml version="1.0" encoding="utf-8"?>
<!DOCTYPE svg PUBLIC "-//W3C//DTD SVG 1.1//EN" "http://www.w3.org/Graphics/SVG/1.1/DTD/svg11.dtd">
<svg version="1.1" xmlns="http://www.w3.org/2000/svg" xmlns:xlink="http://www.w3.org/1999/xlink" x="0px" y="0px" width="164px"
	height="314px" viewBox="0 0 164 314" enable-background="new 0 0 164 314" xml:space="preserve">
	<g id="Background">
		<rect fill="#808080" width="164" height="314"/>
	</g>
	<g id="Foreground" opacity="1">
		<g id ="Logo">
			<path fill="#ffffff" d="M86,17v61h61V17H86z M135.838,26.357v17.458l-8.729-8.73L135.838,26.357z M107.15,39.413l8.73,8.729H98.424
				L107.15,39.413z M97.162,46.881V29.422l8.729,8.73L97.162,46.881z M106.238,35.977h17.457l-8.729,8.729L106.238,35.977z
				M125.85,55.587l-8.73-8.729h17.457l-6.172,6.172L125.85,55.587z M126.762,59.022h-17.459l8.729-8.728L126.762,59.022z
				M135.838,48.119v17.458l-8.729-8.729L135.838,48.119z M134.576,45.075h-17.457l8.73-8.729L134.576,45.075z M123.695,34.194h-17.457
				l8.729-8.729L123.695,34.194z M112.814,25.096l-8.729,8.728l-8.73-8.728H112.814z M97.162,68.643V51.185l8.729,8.729L97.162,68.643z
				M104.596,56.097l-6.172-6.173h17.457l-8.73,8.729L104.596,56.097z M109.303,60.805h17.459l-6.173,6.173l-2.557,2.556
				L109.303,60.805z M120.186,69.904l6.17-6.174l2.559-2.555l8.73,8.729H120.186z"/>
		</g>
		<g id="Laptop">
			<path fill="#ffffff" d="M142.193,273.109c-0.006,0.967-0.791,1.749-1.76,1.749H92.923c-0.968,0-1.752-0.782-1.76-1.749H23.067
				h-9.321v2.839c0,2.279,2.473,4.129,5.523,4.129h145.356v-6.968H142.193z"/>
			<rect fill="#ffffff" x="131.924" y="167.461" width="32.076" height="6.969"/>
			<path fill="#ffffff" d="M37.598,262.693v-88.267h63.466v-6.968H34.759c-2.28,0-4.129,1.85-4.129,4.13v93.94
				c0,2.279,1.849,4.13,4.129,4.13H164v-6.97H37.598V262.693z"/>
			<path fill="#ffffff" d="M116.5,224.1l27.312-27.136h-15.291V174.43v-6.969v-24.176c0-1.151-0.301-2.008-0.918-2.619
				c-0.621-0.622-1.479-0.921-2.621-0.921h-16.979c-1.088,0-1.935,0.305-2.579,0.933c-0.646,0.62-0.959,1.471-0.959,2.607v24.176
				v6.968v22.535H89.186L116.5,224.1z"/>
		</g>
	</g>
</svg>
